<?xml version="1.0" encoding="UTF-8"?>
<svg id="Layer_5" data-name="Layer 5" xmlns="http://www.w3.org/2000/svg" xmlns:xlink="http://www.w3.org/1999/xlink" viewBox="0 0 1200 1200">
  <defs>
    <style>
      .cls-1 {
        fill: #fff;
      }

      .cls-2 {
        fill: #39b54a;
      }

      .cls-3 {
        fill: #ed1c24;
        filter: url(#drop-shadow-1);
        stroke: #fff;
        stroke-miterlimit: 10;
        stroke-width: 20px;
      }
    </style>
    <filter id="drop-shadow-1" filterUnits="userSpaceOnUse">
      <feOffset dx="7" dy="7"/>
      <feGaussianBlur result="blur" stdDeviation="20"/>
      <feFlood flood-color="#000" flood-opacity=".25"/>
      <feComposite in2="blur" operator="in"/>
      <feComposite in="SourceGraphic"/>
    </filter>
  </defs>
  <rect width="1200" height="1200"/>
  <g>
    <circle class="cls-3" cx="600" cy="600" r="451.77"/>
    <g>
      <path class="cls-1" d="m999.23,455.88c-3.52,10.86-7.03,21.71-10.56,32.57-6.59,20.3-13.17,40.6-19.76,60.91-5.62,17.32-11.25,34.65-16.88,51.97-6.22,19.18-12.44,38.36-18.67,57.53-5.97,18.39-11.95,36.78-17.93,55.17-2.76,8.49-5.51,16.99-8.27,25.48-.71,2.19-.72,2.21-2.93,2.27-5.21.16-10.42.26-15.63.45-8.23.29-16.45.66-24.68.96-5.33.19-10.66.29-15.99.46-3.97.13-7.93.27-11.89.45-2.17.1-2.19.12-3-1.89-8.48-21.16-16.96-42.31-25.44-63.47-14.39-35.88-28.78-71.76-43.17-107.64-6.76-16.87-13.55-33.72-20.25-50.61-.63-1.59-1.39-2.31-3.16-2.37-5.04-.18-10.06.05-15.08.51-8.11.73-16.01,2.43-23.76,4.86-11.88,3.72-22.97,9.13-33.56,15.62-13.18,8.07-25.27,17.58-36.8,27.83-13.04,11.58-25.04,24.19-36.68,37.15-12.38,13.79-24.61,27.73-37.1,41.42-16.2,17.77-33.87,33.95-53.31,48.16-23.49,17.17-48.89,30.69-76.6,39.75-10.07,3.29-20.28,6.07-30.71,7.93-6.18,1.1-12.41,1.87-18.69,2.04-4.79.13-9.6.2-14.38-.05-4.84-.26-9.67-.81-14.47-1.48-9.94-1.39-19.62-3.91-28.86-7.78-5.43-2.28-10.67-2.14-16.1-.57-5.34,1.54-10.65,3.18-16.03,4.55-6.36,1.62-12.85,2.64-19.37,3.46-9,1.14-18.03,1.75-27.09,1.89-9.06.14-18.13.15-27.19.15-4.14,0-8.29-.17-12.43-.27-.58-.01-1.17-.07-1.72-.11-.39-1.43-.45-47.41-.05-49.4.63-.03,1.32-.08,2-.08,11.02.05,22.04.18,33.06.14,5.03-.02,10.08-.11,15.08-.58,9.82-.92,19.04-3.73,27-9.82,8.19-6.26,12.8-14.57,13.99-24.8.74-6.32.29-12.66.33-18.99,0-1.42.01-2.84.01-4.26,0-55.66,0-111.32,0-166.99,0-2.5.33-4.94.89-7.31,1.46-.37,64.15-.45,66.33-.09.51,2.24.84,4.55.85,6.91,0,6.75,0,13.5,0,20.25,0,11.55,0,23.09,0,34.64.02,20.84.06,41.69.06,62.53,0,12.73-.01,25.46-.11,38.19-.07,10.18-.18,20.36-.46,30.54-.22,7.8-.7,15.59-2.18,23.29-1.85,9.6-6.15,17.95-12.43,25.37-5.41,6.39-11.47,12.13-17.6,17.81-2.17,2.01-4.37,3.99-6.55,6-.42.38-.79.81-1.42,1.46,2.41.67,4.49,1.32,6.6,1.81,7.04,1.63,14.17,2.61,21.4,3.02,5.64.32,11.25.15,16.86-.22,7.08-.47,14.11-1.47,21.12-2.65,8.76-1.48,17.41-3.4,25.91-5.97,20.89-6.32,40.05-16.08,57.8-28.71,13.85-9.86,26.45-21.15,38.2-33.41,10.01-10.44,19.53-21.33,28.13-32.95,5.39-7.27,10.42-14.83,15.3-22.46,8.39-13.13,17.09-26.03,26.63-38.36,9.97-12.88,19.63-26,30.2-38.4,10.09-11.83,20.89-22.94,32.97-32.77,19.58-15.92,41.62-26.81,66.25-32.38,6.63-1.5,13.35-2.57,20.11-3.33,10.32-1.16,20.67-1.55,31.04-1.29,5.26.13,10.51.69,15.77.91,2.54.11,5.09-.1,7.63-.15.88-.02,1.76,0,2.84,0,27.68,71.01,55.38,142.07,83.08,213.13.14.01.28.02.43.03.23-.56.5-1.11.68-1.68,2.03-6.68,4.04-13.37,6.07-20.06,11.23-37.11,22.46-74.22,33.68-111.33,8.09-26.74,16.18-53.48,24.27-80.22.2-.67.44-1.34.68-2.05,1.91-.13,3.73-.31,5.56-.38,7.4-.26,14.8-.49,22.19-.74,8.88-.29,17.76-.59,26.63-.89,3.2-.11,6.39-.24,9.58-.38.46-.02.91-.17,1.37-.26.12,0,.24,0,.36,0Z"/>
      <path class="cls-2" d="m492.54,660.68c-.38-.79-.67-1.35-.91-1.93-11.49-27.28-22.98-54.56-34.47-81.83-5.65-13.42-11.3-26.84-16.96-40.26q-1.15-2.74-4.25-1.66c0,.73,0,1.55,0,2.36,0,27.3,0,54.6,0,81.89,0,17.05-.06,34.11-.01,51.16.02,7.28.27,14.56.34,21.84.01,1.52-.16,3.08-.5,4.57-.81,3.66-2.94,6.45-6.22,8.25-1.54.85-3.21,1.51-4.88,2.09-16.59,5.76-33.2,11.49-49.8,17.22-.49.17-1,.27-1.66.45-.1-.57-.22-1-.24-1.45-.04-.59-.01-1.18-.01-1.78,0-86.16,0-172.31,0-258.47,0-.99,0-1.99,0-3.11.74-.06,1.25-.13,1.76-.13,26.25,0,52.51-.01,78.76.04,6.81.01,13.62.24,20.43.33,1.59.02,2.87.67,4.01,1.65,2.71,2.32,4.67,5.18,5.95,8.49,4.22,10.86,8.49,21.71,12.63,32.6,7.5,19.73,14.94,39.49,22.39,59.25,3.29,8.74,6.49,17.52,9.83,26.25,1.12,2.92,2.54,5.73,3.8,8.6.98,2.23,1.65,4.56,1.87,7,.32,3.59-.44,6.97-2.34,10.03-1.12,1.8-2.34,3.59-3.77,5.14-10.23,11.12-19.85,22.77-29.59,34.3-1.61,1.9-3.21,3.8-4.82,5.69-.37.43-.78.83-1.34,1.43Z"/>
      <path class="cls-2" d="m740.79,527.35v215.47h-64.66c-.07-.78-.19-1.57-.19-2.37-.01-12.02-.02-24.04,0-36.06.04-31.5.12-63,.11-94.5,0-16.34-.19-32.68-.25-49.02,0-2.42.04-4.86.36-7.25.65-4.8,3.1-8.59,7.29-11.01,3.12-1.8,6.42-3.3,9.71-4.76,7.74-3.44,15.61-6.52,23.87-8.52,7.18-1.74,14.44-2.54,21.82-2.28.63.02,1.26.18,1.93.29Z"/>
      <path class="cls-2" d="m663.58,558.28c-1.03,2.53-2.01,4.92-2.99,7.32-9.1,22.35-18.33,44.64-27.28,67.05-13.38,33.5-26.54,67.09-39.84,100.62-.76,1.91-1.73,3.77-2.85,5.49-2.2,3.37-5.51,4.99-9.45,5.14-3.07.12-6.15-.1-9.23-.13-7.23-.08-14.45-.2-21.68-.18-6.04.02-12.08.26-18.12.32-1.35.01-2.72-.17-4.04-.48-3.42-.82-5.73-3.03-7.03-6.23-1.02-2.52-1.77-5.15-2.76-7.68-2.39-6.12-4.84-12.21-7.27-18.32-.13-.33-.24-.67-.4-.99-.43-.81-.2-1.41.43-2.04,2.25-2.27,4.44-4.6,6.66-6.9,10.08-10.43,20.16-20.86,30.25-31.28,7.29-7.53,14.59-15.05,21.88-22.58,9.88-10.21,19.75-20.44,29.63-30.65,6.38-6.6,12.78-13.18,19.16-19.77,8.23-8.51,16.45-17.03,24.68-25.55,5.14-5.32,10.3-10.63,15.45-15.95.12-.12.29-.2.59-.41,1.35,1.03,2.74,2.08,4.2,3.19Z"/>
    </g>
  </g>
</svg>